HIERARCHY
ROOT Hips
{
    OFFSET 0.000000 0.000000 0.000000
    CHANNELS 6 Xposition Yposition Zposition Zrotation Xrotation Yrotation
    JOINT Spine
    {
        OFFSET -0.000000 7.810951 0.000000
        CHANNELS 3 Zrotation Xrotation Yrotation
        JOINT Spine1
        {
            OFFSET -0.000000 18.868288 0.000000
            CHANNELS 3 Zrotation Xrotation Yrotation
            JOINT Neck
            {
                OFFSET -0.000000 18.790800 1.708255
                CHANNELS 3 Zrotation Xrotation Yrotation
                JOINT Head
                {
                    OFFSET -0.000000 13.335769 -1.905110
                    CHANNELS 3 Zrotation Xrotation Yrotation
                    End Site
                    {
                        OFFSET -0.000000 23.813873 0.000000
                    }
                }
            }
            JOINT LeftShoulder
            {
                OFFSET 3.868973 15.461964 -0.252686
                CHANNELS 3 Zrotation Xrotation Yrotation
                JOINT LeftArm
                {
                    OFFSET 15.258958 0.000000 0.000000
                    CHANNELS 3 Zrotation Xrotation Yrotation
                    JOINT LeftForeArm
                    {
                        OFFSET 27.600050 0.000000 0.000000
                        CHANNELS 3 Zrotation Xrotation Yrotation
                        JOINT LeftHand
                        {
                            OFFSET 23.737446 0.000000 0.000000
                            CHANNELS 3 Zrotation Xrotation Yrotation
                            End Site
                            {
                                OFFSET 14.288324 0.000000 0.000000
                            }
                        }
                    }
                }
            }
            JOINT RightShoulder
            {
                OFFSET -3.750262 15.461964 -0.252686
                CHANNELS 3 Zrotation Xrotation Yrotation
                JOINT RightArm
                {
                    OFFSET -15.258958 0.000000 0.000000
                    CHANNELS 3 Zrotation Xrotation Yrotation
                    JOINT RightForeArm
                    {
                        OFFSET -27.600050 0.000000 0.000000
                        CHANNELS 3 Zrotation Xrotation Yrotation
                        JOINT RightHand
                        {
                            OFFSET -23.737446 0.000000 0.000000
                            CHANNELS 3 Zrotation Xrotation Yrotation
                            End Site
                            {
                                OFFSET -14.288324 0.000000 0.000000
                            }
                        }
                    }
                }
            }
        }
    }
    JOINT LeftUpLeg
    {
        OFFSET 9.525549 0.000000 0.000000
        CHANNELS 3 Zrotation Xrotation Yrotation
        JOINT LeftLeg
        {
            OFFSET -0.000000 -45.198063 0.000000
            CHANNELS 3 Zrotation Xrotation Yrotation
            JOINT LeftFoot
            {
                OFFSET -0.000000 -37.850700 0.000000
                CHANNELS 3 Zrotation Xrotation Yrotation
                JOINT LeftToeBase
                {
                    OFFSET -0.000000 -6.191607 14.288324
                    CHANNELS 3 Zrotation Xrotation Yrotation
                    End Site
                    {
                        OFFSET -0.000000 0.000000 3.810220
                    }
                }
            }
        }
    }
    JOINT RightUpLeg
    {
        OFFSET -9.525549 0.000000 0.000000
        CHANNELS 3 Zrotation Xrotation Yrotation
        JOINT RightLeg
        {
            OFFSET -0.000000 -45.198063 0.000000
            CHANNELS 3 Zrotation Xrotation Yrotation
            JOINT RightFoot
            {
                OFFSET -0.000000 -37.850700 0.000000
                CHANNELS 3 Zrotation Xrotation Yrotation
                JOINT RightToeBase
                {
                    OFFSET -0.000000 -6.191607 14.288324
                    CHANNELS 3 Zrotation Xrotation Yrotation
                    End Site
                    {
                        OFFSET -0.000000 0.000000 3.810220
                    }
                }
            }
        }
    }
}
MOTION
Frames:    11
Frame Time:    0.008333
-11.692781    91.440048    14.517101    0.857142    -3.150721    179.861359    -0.827466    -9.176668    0.375279    1.031358    5.214994    0.394852    4.888218    17.762346    6.684743    -5.834967    -8.792258    5.760324    22.247633    -4.722530    1.252173    -20.875235    -0.533938    -6.560565    0.842043    -4.694795    1.182088    -4.472199    -4.419442    -7.287139    -19.119394    -5.687665    -0.007990    20.694956    -3.704586    -6.557958    -4.134745    0.261736    3.958802    -5.460902    0.598325    -4.054958    3.172688    3.077214    -8.555058    -1.492327    -1.475601    -5.055873    -1.438877    -0.809067    20.875154    0.000000    0.000000    0.000000    -3.300522    5.337232    6.778802    2.535093    -6.181011    6.984376    -0.623099    1.986012    -20.408386    0.000000    0.000000    0.000000    
-11.691668    91.438576    14.516711    0.857446    -3.148795    179.869675    -0.822565    -9.178180    0.369189    1.026536    5.223525    0.388437    4.874669    17.784550    6.671082    -5.835459    -8.850277    5.743952    22.245562    -4.713910    1.267405    -20.861681    -0.484302    -6.565179    0.853926    -4.719693    1.202993    -4.490880    -4.443547    -7.284386    -19.138895    -5.713073    -0.015792    20.696911    -3.694879    -6.568924    -4.134163    0.254847    3.957647    -5.507194    0.592757    -4.051208    3.173402    3.074276    -8.525981    -1.489353    -1.464707    -5.086850    -1.427337    -0.808826    20.863237    0.000000    0.000000    0.000000    -3.303943    5.334073    6.797809    2.538413    -6.169518    7.036702    -0.650719    1.985408    -20.460384    0.000000    0.000000    0.000000    
-11.689713    91.438553    14.513302    0.866506    -3.130627    179.881958    -0.832988    -9.166959    0.363346    1.053339    5.234610    0.382165    4.883112    17.756197    6.670368    -5.868620    -8.831943    5.735713    22.241522    -4.700997    1.259239    -20.866291    -0.453578    -6.551466    0.870941    -4.779016    1.228623    -4.406272    -4.508397    -7.290659    -19.158489    -5.713592    -0.031079    20.695864    -3.692381    -6.580316    -4.131537    0.238394    3.977944    -5.597173    0.580473    -4.056427    3.186938    3.090322    -8.523034    -1.499511    -1.463038    -5.084982    -1.438873    -0.821417    20.857569    0.000000    0.000000    0.000000    -3.295646    5.352922    6.841881    2.538410    -6.164984    6.980119    -0.663887    1.987258    -20.458300    0.000000    0.000000    0.000000    
-11.687425    91.439964    14.513243    0.866514    -3.126339    179.897781    -0.842068    -9.167056    0.351907    1.064150    5.260305    0.370714    4.880142    17.638294    6.697783    -5.880383    -8.722462    5.761642    22.247478    -4.702856    1.300902    -20.862434    -0.404277    -6.571347    0.872040    -4.837474    1.239081    -4.435467    -4.567945    -7.217628    -19.176714    -5.736773    -0.062149    20.694717    -3.726768    -6.566505    -4.136718    0.233097    3.983765    -5.622420    0.575488    -4.040829    3.188174    3.083498    -8.521021    -1.497129    -1.441186    -5.129923    -1.445480    -0.835130    20.877516    0.000000    0.000000    0.000000    -3.294398    5.353076    6.829452    2.545786    -6.150560    7.002531    -0.652045    1.972325    -20.491920    0.000000    0.000000    0.000000    
-11.685525    91.440094    14.512615    0.869407    -3.121550    179.904312    -0.831427    -9.161701    0.347872    1.047827    5.270808    0.366271    4.846180    17.570055    6.711866    -5.827742    -8.669626    5.786730    22.264376    -4.715322    1.330100    -20.861494    -0.385235    -6.587956    0.882490    -4.881039    1.296304    -4.457705    -4.611470    -7.197133    -19.186533    -5.763065    -0.088171    20.698326    -3.719228    -6.566602    -4.129857    0.208064    3.992407    -5.675048    0.552039    -4.028641    3.191119    3.091170    -8.515289    -1.492649    -1.453466    -5.111168    -1.442518    -0.822421    20.849600    0.000000    0.000000    0.000000    -3.289669    5.350564    6.828315    2.546041    -6.132024    6.967250    -0.655468    1.962239    -20.458115    0.000000    0.000000    0.000000    
-11.684283    91.441879    14.510987    0.867996    -3.115700    179.915421    -0.829431    -9.150325    0.338079    1.039122    5.267869    0.356829    4.872841    17.565510    6.726450    -5.892653    -8.685721    5.787214    22.275724    -4.722340    1.351664    -20.860098    -0.380777    -6.585868    0.864488    -4.871583    1.345793    -4.389849    -4.606156    -7.204825    -19.192310    -5.774571    -0.098830    20.693562    -3.707587    -6.573555    -4.121905    0.177364    4.009936    -5.686578    0.521269    -4.016822    3.196289    3.100451    -8.515408    -1.501898    -1.459556    -5.139079    -1.442172    -0.812875    20.869682    0.000000    0.000000    0.000000    -3.294752    5.355427    6.843294    2.557279    -6.124908    6.953523    -0.666878    1.964706    -20.470713    0.000000    0.000000    0.000000    
-11.682214    91.444153    14.508992    0.870115    -3.106052    179.925293    -0.837920    -9.137064    0.331895    1.054860    5.261971    0.350499    4.833040    17.567074    6.740525    -5.860466    -8.714547    5.806973    22.275515    -4.728161    1.361989    -20.864498    -0.414280    -6.591088    0.845392    -4.843329    1.402588    -4.400940    -4.577354    -7.205626    -19.210747    -5.804675    -0.109797    20.700096    -3.690659    -6.586530    -4.129834    0.180268    4.009755    -5.654586    0.523367    -4.013450    3.201028    3.112594    -8.527454    -1.506464    -1.464716    -5.116518    -1.461509    -0.814927    20.860577    0.000000    0.000000    0.000000    -3.291811    5.368164    6.834425    2.563027    -6.123041    6.989929    -0.674816    1.963685    -20.499352    0.000000    0.000000    0.000000    
-11.679031    91.445313    14.507790    0.876642    -3.105008    179.924561    -0.834862    -9.119031    0.326837    1.055818    5.227651    0.345368    4.824225    17.565592    6.762220    -5.869086    -8.698063    5.828346    22.284575    -4.706707    1.381253    -20.864717    -0.459240    -6.600576    0.816984    -4.814548    1.453920    -4.400025    -4.548925    -7.197742    -19.220860    -5.798142    -0.107724    20.711485    -3.631171    -6.594118    -4.131398    0.158673    4.006824    -5.610531    0.499558    -4.003523    3.211736    3.118222    -8.527234    -1.506600    -1.473234    -5.114313    -1.458854    -0.804911    20.852901    0.000000    0.000000    0.000000    -3.275709    5.378051    6.827647    2.539766    -6.139101    7.001338    -0.649905    1.981334    -20.502913    0.000000    0.000000    0.000000    
-11.680090    91.446854    14.506907    0.872956    -3.105220    179.925369    -0.828756    -9.120040    0.328185    1.040680    5.238377    0.346663    4.835076    17.532726    6.778991    -5.897009    -8.679248    5.839354    22.294392    -4.728846    1.384012    -20.863089    -0.481295    -6.583138    0.787861    -4.771998    1.505410    -4.371335    -4.508216    -7.196032    -19.226164    -5.828868    -0.119763    20.716110    -3.571713    -6.618319    -4.132383    0.151930    4.002813    -5.510116    0.488335    -3.985957    3.202713    3.118504    -8.523396    -1.499462    -1.471210    -5.108125    -1.457177    -0.804073    20.837755    0.000000    0.000000    0.000000    -3.283211    5.381624    6.861378    2.553422    -6.151152    6.899917    -0.722471    2.041678    -20.423506    0.000000    0.000000    0.000000    
-11.678759    91.448006    14.505709    0.875089    -3.101860    179.927155    -0.831824    -9.109512    0.326154    1.051592    5.231848    0.344447    4.822602    17.516623    6.794228    -5.914109    -8.663016    5.851451    22.294371    -4.747784    1.382452    -20.868931    -0.506314    -6.559001    0.751287    -4.696528    1.555787    -4.323694    -4.435403    -7.200249    -19.241261    -5.823699    -0.135240    20.727619    -3.510934    -6.621972    -4.119511    0.143292    4.003850    -5.496523    0.478899    -3.988241    3.201713    3.122463    -8.499144    -1.488351    -1.470045    -5.145298    -1.455117    -0.795903    20.849194    0.000000    0.000000    0.000000    -3.274964    5.395474    6.865833    2.536373    -6.166057    6.941550    -0.639087    1.999662    -20.487989    0.000000    0.000000    0.000000    
-11.679972    91.448364    14.502689    0.872810    -3.101141    179.917084    -0.832287    -9.098680    0.328434    1.054563    5.211357    0.346670    4.856836    17.541990    6.810249    -6.002894    -8.682271    5.849586    22.289988    -4.759560    1.402037    -20.874672    -0.538325    -6.572673    0.742486    -4.640649    1.629309    -4.380468    -4.377332    -7.173036    -19.250460    -5.823751    -0.133155    20.740612    -3.475280    -6.637282    -4.116635    0.160634    4.002394    -5.422760    0.493940    -3.999161    3.198631    3.135777    -8.511043    -1.485590    -1.485448    -5.132656    -1.457224    -0.785869    20.855736    0.000000    0.000000    0.000000    -3.279051    5.397317    6.806066    2.541473    -6.167470    7.004324    -0.655286    2.018637    -20.473976    0.000000    0.000000    0.000000    
